<svg width="56" height="56" viewBox="0 0 56 56" fill="none" xmlns="http://www.w3.org/2000/svg">
<path d="M10.6749 21C10.4139 20.9994 10.1562 20.9405 9.92091 20.8274C9.68558 20.7144 9.47854 20.5501 9.31494 20.3466C9.15134 20.1432 9.03533 19.9057 8.97542 19.6516C8.9155 19.3975 8.9132 19.1332 8.96868 18.8781C10.3687 12.1406 18.3531 7 27.9999 7C37.6468 7 45.6312 12.1406 47.0312 18.8781C47.0867 19.1332 47.0844 19.3975 47.0244 19.6516C46.9645 19.9057 46.8485 20.1432 46.6849 20.3466C46.5213 20.5501 46.3143 20.7144 46.079 20.8274C45.8436 20.9405 45.586 20.9994 45.3249 21H10.6749Z" stroke="white" stroke-width="2" stroke-linecap="round" stroke-linejoin="round"/>
<path d="M45.5 36.75V40.25C45.5 42.1065 44.7625 43.887 43.4497 45.1997C42.137 46.5125 40.3565 47.25 38.5 47.25H17.5C15.6435 47.25 13.863 46.5125 12.5503 45.1997C11.2375 43.887 10.5 42.1065 10.5 40.25V36.75" stroke="white" stroke-width="2" stroke-linecap="round" stroke-linejoin="round"/>
<path d="M6.125 38.5L14.875 35L23.625 38.5L32.375 35L41.125 38.5L49.875 35" stroke="white" stroke-width="2" stroke-linecap="round" stroke-linejoin="round"/>
<path d="M5.25 28H50.75" stroke="white" stroke-width="2" stroke-linecap="round" stroke-linejoin="round"/>
</svg>
