<svg width="56" height="56" viewBox="0 0 56 56" fill="none" xmlns="http://www.w3.org/2000/svg">
<path d="M28 38.5V50.75" stroke="white" stroke-width="2" stroke-linecap="round" stroke-linejoin="round"/>
<path d="M19.25 50.75H36.75" stroke="white" stroke-width="2" stroke-linecap="round" stroke-linejoin="round"/>
<path d="M17.4999 5.25H38.4999L44.2093 24.5656C44.5612 25.7756 44.4681 27.0715 43.9468 28.2187C42.5603 31.2864 40.3184 33.8891 37.4899 35.7147C34.6614 37.5403 31.3664 38.5113 27.9999 38.5113C24.6335 38.5113 21.3384 37.5403 18.5099 35.7147C15.6815 33.8891 13.4396 31.2864 12.0531 28.2187C11.5318 27.0715 11.4387 25.7756 11.7906 24.5656L17.4999 5.25Z" stroke="white" stroke-width="2" stroke-linecap="round" stroke-linejoin="round"/>
<path d="M12.5781 21.9406C14.8969 20.6938 20.2781 18.9 28 22.75C36.225 26.8625 41.8031 24.5438 43.8375 23.3406" stroke="white" stroke-width="2" stroke-linecap="round" stroke-linejoin="round"/>
</svg>
